<?xml version="1.0" encoding="UTF-8"?> <!-- Generator: Adobe Illustrator 24.2.3, SVG Export Plug-In . SVG Version: 6.00 Build 0) --> <svg xmlns="http://www.w3.org/2000/svg" xmlns:xlink="http://www.w3.org/1999/xlink" id="Layer_1" x="0px" y="0px" viewBox="0 0 430.6 85.3" xml:space="preserve"> <g> <path d="M33.6,58.8v-34h-5.7v-1.4h19c2.1,0,3.8,0.1,5.3,0.3c1.4,0.2,2.8,0.8,4.1,1.6c1.3,0.9,2.3,2,2.8,3.3 c0.6,1.3,0.9,2.5,0.9,3.7c0,4.4-3.4,7.2-10.1,8.6V41c7.6,1.2,11.4,4.4,11.4,9.4c0,1.2-0.3,2.6-1,3.9c-0.7,1.4-1.8,2.6-3.2,3.6 s-3,1.6-4.5,1.9s-3.5,0.4-5.8,0.4H27.9v-1.4H33.6z M45.7,24.8h-5.6v15.4h5c3.4,0,5.6-0.7,6.6-2c1-1.3,1.4-3.4,1.4-6.3 c0-2.3-0.3-3.9-0.9-4.9s-1.4-1.7-2.4-1.9C48.9,24.9,47.5,24.8,45.7,24.8z M45.1,41.7h-5v17.2h5.2c1.9,0,3.5-0.1,4.6-0.4 s2.1-1.1,2.9-2.3s1.2-3.3,1.2-6c0-2.9-0.6-5-1.8-6.4S48.6,41.7,45.1,41.7z"></path> </g> <g> <path d="M75.3,58.8v-34h-3.9v-1.4h3.8c2.5,0,4.4-0.1,5.5-0.4v35.8h3.9v1.4H71.4v-1.4H75.3z"></path> </g> <g> <path d="M93.8,49.4c0-3.2,1.1-5.9,3.3-8.1c2.2-2.2,4.9-3.3,8.1-3.3c3.1,0,5.8,1.1,8,3.2c2.2,2.1,3.3,4.8,3.3,8 c0,3.3-1.1,6.1-3.4,8.3c-2.3,2.3-4.9,3.4-8,3.4c-3,0-5.7-1.1-7.9-3.3C94.9,55.3,93.8,52.6,93.8,49.4z M110.2,49.4 c0-3.4-0.1-5.6-0.3-6.7c-0.2-1.1-0.7-1.9-1.5-2.6c-0.8-0.6-1.9-0.9-3.3-0.9c-1.3,0-2.4,0.3-3.3,1c-0.9,0.6-1.4,1.5-1.6,2.6 s-0.3,3.3-0.3,6.7c0,3.4,0.1,5.6,0.4,6.7c0.2,1.1,0.8,2,1.6,2.6c0.8,0.6,1.9,0.9,3.1,0.9c1.3,0,2.3-0.3,3.2-0.9 c0.9-0.6,1.4-1.5,1.6-2.6C110.1,55,110.2,52.7,110.2,49.4z"></path> </g> <g> <path d="M124.6,49.6c0-3.2,1.1-5.9,3.3-8.1c2.2-2.2,4.9-3.3,8.1-3.3c3.1,0,5.8,1.1,8,3.2c2.2,2.1,3.3,4.8,3.3,8 c0,3.3-1.1,6.1-3.4,8.3s-4.9,3.4-8,3.4c-3,0-5.7-1.1-7.9-3.3C125.7,55.6,124.6,52.8,124.6,49.6z M141.1,49.6c0-3.4-0.1-5.6-0.3-6.7 s-0.7-1.9-1.5-2.6c-0.8-0.6-1.9-0.9-3.3-0.9c-1.3,0-2.4,0.3-3.3,1s-1.4,1.5-1.6,2.6c-0.2,1.1-0.3,3.3-0.3,6.7 c0,3.4,0.1,5.6,0.4,6.7c0.2,1.1,0.8,2,1.6,2.6c0.8,0.6,1.9,0.9,3.1,0.9c1.3,0,2.3-0.3,3.2-0.9c0.9-0.6,1.4-1.5,1.6-2.6 S141.1,52.9,141.1,49.6z"></path> </g> <g> <path d="M159.2,59V40.3h-3.9v-1.4h2.4c2.9,0,5.1-0.1,6.8-0.4v5.3h0.1c1.4-3.5,4-5.3,7.7-5.3c4,0,6.3,1.9,6.7,5.6h0.1 c1.6-3.8,4.2-5.6,7.9-5.6c1.6,0,3,0.4,4.2,1.2s1.8,1.8,2.1,2.9c0.3,1.1,0.4,2.9,0.4,5.4V59h3.8v1.4h-12.8V59h3.6V45.5 c0-2.1-0.1-3.6-0.4-4.4c-0.2-0.8-0.9-1.2-2-1.2c-1.5,0-3,0.8-4.6,2.5c-1.6,1.7-2.3,4.9-2.3,9.5V59h3.5v1.4h-12.4V59h3.6V48.4 c0-4.1-0.2-6.6-0.5-7.4c-0.3-0.8-1-1.2-2.2-1.2c-1.6,0-2.9,0.7-4.1,2.1c-1.2,1.4-1.9,2.7-2.2,4c-0.3,1.3-0.4,3.4-0.4,6.2V59h3.5 v1.4h-12.8V59H159.2z"></path> </g> <g> <path d="M215.4,38.5V59h3.6v1.4h-12.8V59h3.8V40.3h-3.8v-1.4h3.9C212,38.9,213.8,38.7,215.4,38.5z M209.9,27.9 c0-0.8,0.3-1.5,0.9-2.1c0.6-0.6,1.3-0.9,2.1-0.9c0.8,0,1.5,0.3,2.1,0.9c0.6,0.6,0.9,1.3,0.9,2.1c0,0.9-0.3,1.6-0.9,2.1 c-0.6,0.6-1.3,0.9-2.1,0.9c-0.8,0-1.5-0.3-2.1-0.9S209.9,28.7,209.9,27.9z"></path> </g> <g> <path d="M232.4,59V40.3h-3.9v-1.4h2.5c2.5,0,4.7-0.1,6.7-0.4v5.4h0.1c1.9-3.8,4.5-5.6,8-5.6c1.6,0,2.9,0.4,4,1.2s1.7,1.8,2.1,2.9 s0.6,2.8,0.6,5.2V59h4.3v1.4h-13.3V59h3.6V45.3c0-2.1-0.1-3.6-0.4-4.4c-0.3-0.8-1-1.2-2.1-1.2c-1.8,0-3.4,0.9-4.8,2.7 c-1.4,1.8-2.1,4.3-2.1,7.3V59h3.6v1.4h-12.8V59H232.4z"></path> </g> <g> <path d="M283.7,41.7c1.1,1.5,1.6,3,1.6,4.5c0,2.5-1,4.4-3,5.7c-2,1.3-3.7,1.9-5,1.9l-1.4,0.1c-0.6,0-1.5-0.1-2.6-0.2 c-1.1-0.1-1.7-0.2-1.8-0.2c-0.7,0-1.5,0.3-2.5,1c-1,0.6-1.4,1.3-1.4,2.1c0,0.6,0.2,1.1,0.7,1.5c0.5,0.3,1.7,0.5,3.7,0.5l9.4-0.4 c2,0,3.5,0.6,4.8,1.9c1.2,1.2,1.8,3,1.8,5.3c0,2.7-1.1,5-3.3,6.8c-2.2,1.8-5.3,2.8-9.2,2.8c-3,0-5.4-0.6-7.2-1.8s-2.7-2.6-2.7-4.3 c0-1,0.3-1.9,0.9-2.5c0.6-0.7,1.8-1.6,3.8-2.7c-3-0.7-4.6-2.4-4.6-5c0-3.5,1.9-5.5,5.7-6v-0.1c-2.9-1.4-4.4-3.5-4.4-6.3 c0-2.3,0.9-4.2,2.7-5.7c1.8-1.5,3.9-2.3,6.4-2.3c2.7,0,4.9,0.9,6.7,2.7c1.3-1.8,2.8-2.7,4.4-2.7c0.6,0,1.2,0.2,1.6,0.6 c0.5,0.4,0.7,1,0.7,1.7c0,0.6-0.2,1.1-0.6,1.5c-0.4,0.4-0.8,0.6-1.3,0.6c-0.7,0-1.2-0.3-1.6-1c-0.3-0.6-0.6-1-0.9-1 C284.8,40.7,284.3,41,283.7,41.7z M271.9,63.6c-1.7,1.1-2.6,2.7-2.6,4.9c0,3.4,2.3,5.1,7,5.1c3,0,5.4-0.7,7.3-2.1 c1.9-1.4,2.9-3,2.9-4.9c0-1.1-0.5-2-1.5-2.6c-1-0.6-2.1-0.9-3.3-0.9c-0.5,0-1.5,0.1-3.2,0.2s-2.9,0.2-3.7,0.2L271.9,63.6z M276.1,39.6c-1.8,0-2.9,0.4-3.3,1.3s-0.6,2.4-0.6,4.5c0,3,0.2,5,0.6,5.9c0.4,0.9,1.5,1.3,3.4,1.3c1.9,0,3-0.4,3.4-1.3 c0.4-0.9,0.6-3.1,0.6-6.6c0-2.2-0.3-3.6-1-4.2C278.4,39.9,277.4,39.6,276.1,39.6z"></path> </g> <g> <path d="M320.2,40.3l-10.4,21h-0.7l-10.6-21h-3.3v-1.4h13.5v1.4h-4.1l7.2,14.6l7.1-14.6h-4.1v-1.4h8.9v1.4H320.2z"></path> </g> <g> <path d="M339.9,38.5V59h3.6v1.4h-12.8V59h3.8V40.3h-3.8v-1.4h3.9C336.5,38.9,338.2,38.7,339.9,38.5z M334.4,27.9 c0-0.8,0.3-1.5,0.9-2.1c0.6-0.6,1.3-0.9,2.1-0.9s1.5,0.3,2.1,0.9s0.9,1.3,0.9,2.1c0,0.9-0.3,1.6-0.9,2.1c-0.6,0.6-1.3,0.9-2.1,0.9 c-0.8,0-1.5-0.3-2.1-0.9S334.4,28.7,334.4,27.9z"></path> </g> <g> <path d="M356.3,59V25h-3.9v-1.4h3.8c2.5,0,4.4-0.1,5.5-0.4V59h3.9v1.4h-13.1V59H356.3z"></path> </g> <g> <path d="M378.3,59V25h-3.9v-1.4h3.8c2.5,0,4.4-0.1,5.5-0.4V59h3.9v1.4h-13.1V59H378.3z"></path> </g> <g> <path d="M416.4,48h-13.9c-0.1,5.4,0.2,8.7,0.9,10c0.7,1.3,2,1.9,3.9,1.9c3.9,0,6.5-2.3,7.9-6.8h1.2c-0.6,2.7-1.7,4.7-3.4,6 s-3.6,1.9-5.6,1.9c-2.9,0-5.5-1.1-7.7-3.3s-3.3-4.9-3.3-8.2c0-3.2,1.1-5.9,3.2-8.1c2.1-2.2,4.6-3.3,7.4-3.3c2.5,0,4.6,0.9,6.4,2.6 C415.3,42.5,416.2,44.9,416.4,48z M402.5,46.8h8c0.1-1.3,0.2-2.3,0.2-3c0-2.9-1.3-4.4-4-4.4c-1.3,0-2.4,0.4-3.1,1.1 c-0.8,0.7-1.1,1.7-1.1,2.9V46.8z"></path> </g> <g> <path d="M426.4,34.7c-2.3,0-4.3-1.9-4.3-4.3c0-2.3,1.9-4.3,4.3-4.3c2.3,0,4.3,1.9,4.3,4.3C430.6,32.8,428.7,34.7,426.4,34.7z M426.4,26.5c-2.2,0-3.9,1.8-3.9,3.9c0,2.2,1.8,3.9,3.9,3.9c2.2,0,3.9-1.8,3.9-3.9C430.3,28.3,428.5,26.5,426.4,26.5z"></path> </g> <g> <rect x="296.7" y="82.2" width="2" height="0.6"></rect> </g> <g> <polygon points="301.8,82.7 304.6,82.7 304.6,82.1 301.8,82.1 301.8,80.2 305,80.2 305,79.7 301.3,79.7 301.3,85.3 305.1,85.3 305.1,84.8 301.8,84.8 "></polygon> </g> <g> <polygon points="309.7,84.4 307.7,79.7 307.1,79.7 309.4,85.3 309.9,85.3 312.2,79.7 311.6,79.7 "></polygon> </g> <g> <polygon points="315.3,82.7 318.1,82.7 318.1,82.1 315.3,82.1 315.3,80.2 318.4,80.2 318.4,79.7 314.7,79.7 314.7,85.3 318.5,85.3 318.5,84.8 315.3,84.8 "></polygon> </g> <g> <path d="M325.7,81.6c0-1.2-0.8-1.9-2.2-1.9h-2v5.6h0.6v-1.8h1.4c0.1,0,0.3,0,0.4,0l1.3,1.8h0.7l-1.4-1.9 C325.2,83.1,325.7,82.5,325.7,81.6z M322,80.2h1.4c0.6,0,1.7,0.2,1.7,1.4c0,0.9-0.6,1.4-1.7,1.4H322V80.2z"></path> </g> <g> <path d="M336.9,84.2c-0.4,0.4-1,0.6-1.6,0.6c-1.3,0-2.4-1-2.4-2.3c0-1.3,1.1-2.3,2.4-2.3c0.6,0,1.1,0.2,1.6,0.6l0.1,0.1l0.4-0.4 l-0.2-0.1c-0.5-0.5-1.2-0.7-1.9-0.7c-1.6,0-2.9,1.3-2.9,2.8c0,1.6,1.3,2.8,2.9,2.8c0.7,0,1.4-0.3,1.9-0.7l0.2-0.1l-0.4-0.4 L336.9,84.2z"></path> </g> <g> <polygon points="344.2,82.2 340.8,82.2 340.8,79.7 340.3,79.7 340.3,85.3 340.8,85.3 340.8,82.7 344.2,82.7 344.2,85.3 344.8,85.3 344.8,79.7 344.2,79.7 "></polygon> </g> <g> <path d="M349.8,79.7l-2.6,5.6h0.6l0.7-1.6h2.9l0.7,1.6h0.6l-2.6-5.6H349.8z M348.8,83.2l1.2-2.6l1.2,2.6H348.8z"></path> </g> <g> <polygon points="359.3,84.4 355.9,79.7 355.3,79.7 355.3,85.3 355.9,85.3 355.9,80.6 359.3,85.3 359.8,85.3 359.8,79.7 359.3,79.7 "></polygon> </g> <g> <path d="M365.6,80.2c0.6,0,1.1,0.2,1.6,0.6l0.1,0.1l0.4-0.4l-0.2-0.1c-0.5-0.5-1.2-0.7-1.9-0.7c-1.6,0-2.9,1.3-2.9,2.8 c0,1.6,1.3,2.8,2.9,2.8c0.7,0,1.4-0.3,1.9-0.7l0.1-0.1v-2.2H367v1.9c-0.4,0.3-0.9,0.5-1.5,0.5c-1.3,0-2.4-1-2.4-2.3 C363.2,81.2,364.3,80.2,365.6,80.2z"></path> </g> <g> <rect x="370.9" y="79.7" width="0.6" height="5.6"></rect> </g> <g> <polygon points="378.9,84.4 375.5,79.7 374.9,79.7 374.9,85.3 375.5,85.3 375.5,80.6 378.9,85.3 379.4,85.3 379.4,79.7 378.9,79.7 "></polygon> </g> <g> <path d="M385.2,80.2c0.6,0,1.1,0.2,1.6,0.6l0.1,0.1l0.4-0.4l-0.2-0.1c-0.5-0.5-1.2-0.7-1.9-0.7c-1.6,0-2.9,1.3-2.9,2.8 c0,1.6,1.3,2.8,2.9,2.8c0.7,0,1.4-0.3,1.9-0.7l0.1-0.1v-2.2h-0.6v1.9c-0.4,0.3-0.9,0.5-1.5,0.5c-1.3,0-2.4-1-2.4-2.3 C382.8,81.2,383.9,80.2,385.2,80.2z"></path> </g> <g> <polygon points="398.7,82.2 395.3,82.2 395.3,79.7 394.7,79.7 394.7,85.3 395.3,85.3 395.3,82.7 398.7,82.7 398.7,85.3 399.2,85.3 399.2,79.7 398.7,79.7 "></polygon> </g> <g> <path d="M405,79.7c-1.6,0-2.9,1.3-2.9,2.8c0,1.6,1.3,2.8,2.9,2.8s2.9-1.3,2.9-2.8C407.9,80.9,406.6,79.7,405,79.7z M405,84.8 c-1.3,0-2.3-1-2.3-2.3c0-1.3,1.1-2.3,2.3-2.3s2.3,1,2.3,2.3C407.3,83.7,406.3,84.8,405,84.8z"></path> </g> <g> <polygon points="413.4,83.8 411.4,79.7 410.8,79.7 410.8,85.3 411.3,85.3 411.3,80.8 413.3,84.6 413.3,84.7 413.6,84.7 415.6,80.8 415.6,85.3 416.1,85.3 416.1,79.7 415.5,79.7 "></polygon> </g> <g> <polygon points="420.1,82.7 422.9,82.7 422.9,82.1 420.1,82.1 420.1,80.2 423.3,80.2 423.3,79.7 419.6,79.7 419.6,85.3 423.4,85.3 423.4,84.8 420.1,84.8 "></polygon> </g> <g> <path d="M427.9,82.2c-0.9-0.3-1.4-0.5-1.4-1.1c0-0.5,0.5-0.8,1.3-0.8c0.4,0,0.9,0.1,1.2,0.3l0.2,0.1l0.3-0.5l-0.2-0.1 c-0.4-0.3-1-0.4-1.5-0.4c-1.1,0-1.9,0.5-1.9,1.4c0,1.1,0.9,1.4,1.7,1.6c0.9,0.3,1.4,0.5,1.4,1.2c0,0.6-0.6,0.9-1.4,0.9 c-0.6,0-1.2-0.2-1.5-0.6L426,84l-0.4,0.4l0.1,0.1c0.5,0.5,1.2,0.8,1.9,0.8c1.2,0,2-0.6,2-1.5C429.7,82.7,428.7,82.4,427.9,82.2z"></path> </g> <g> <g> <path d="M425.7,32.3v-3.4h-0.8v-0.2h0.8c0.4,0,0.7,0,0.9-0.1v0.9h0c0.2-0.6,0.6-0.9,1-0.9c0.2,0,0.4,0.1,0.5,0.2 c0.1,0.1,0.2,0.3,0.2,0.4c0,0.2,0,0.3-0.1,0.4c-0.1,0.1-0.2,0.1-0.4,0.1c-0.3,0-0.4-0.1-0.4-0.4l0-0.2c0-0.1,0-0.1-0.1-0.1 c-0.1,0-0.2,0.1-0.4,0.4c-0.2,0.3-0.2,0.7-0.2,1.3v1.5h0.8v0.2h-2.6v-0.2H425.7z"></path> </g> </g> <g> <path d="M10.7,10.3c-0.6-2.2-1-4.2-1.2-6.3c0-0.8,0-1.8,0.3-2.6s1-1.5,1.9-1.4c0.7,0.1,1.2,0.6,1.4,1.2c0.3,0.6,0.3,1.2,0.3,1.9 c0.1,2.5,0,5-0.7,7.3c2.1-0.8,4.1-1.6,6.2-2.4c0.8-0.3,1.6-0.6,2.4-0.5s1.7,0.6,1.8,1.3c0.1,0.6-0.3,1.3-0.8,1.7s-1.2,0.6-1.8,0.7 c-2.3,0.5-4.5,0.9-6.9,1.1c1.7,1.8,2.4,3.3,4.2,5.5c0.3,0.4,1.7,2.2,0.6,3.3c-1.3,1.3-2.3,0-2.6-0.3c-0.4-0.4-0.8-0.9-1.2-1.5 c-0.7-1.3-1-1.7-1.2-2.1c-0.8-1.6-0.9-2.1-1.7-3.3c-0.7,1-1.5,2.8-2.2,4c-1.1,1.9-1.7,3-2.7,3.5c-0.3,0.2-1.2,0.1-1.5,0 C5,21.3,4.7,21,4.7,20.8C4,19.4,4.9,18.2,6,17.1c1.1-1.2,2.6-3.5,3.8-4.8C7.9,12,6,11.7,4.1,11.2c-0.9-0.2-2.3-0.6-3.2-1 C0,9.8-0.2,8.7,0.1,7.7c0.7-1.1,2.4-0.9,3.4-0.6S5,7.9,6,8.4C7.7,9.3,8.9,9.8,10.7,10.3"></path> </g> <g> </g> </svg> 